<mxfile host="app.diagrams.net" modified="2023-01-27T13:18:38.292Z" agent="5.0 (Windows NT 10.0; Win64; x64) AppleWebKit/537.36 (KHTML, like Gecko) Chrome/109.0.0.0 Safari/537.36" etag="3DtbvSEnH4ecyjmTCwK1" version="20.8.12" type="github">
  <diagram name="Page-1" id="CrNvvJV-BDu4Iuj1P6hw">
    <mxGraphModel dx="880" dy="452" grid="1" gridSize="10" guides="1" tooltips="1" connect="1" arrows="1" fold="1" page="1" pageScale="1" pageWidth="827" pageHeight="1169" math="0" shadow="0">
      <root>
        <mxCell id="0" />
        <mxCell id="1" parent="0" />
        <mxCell id="NAnWz9q5vf9nP5Ye9Hoa-55" value="" style="rounded=0;whiteSpace=wrap;html=1;" vertex="1" parent="1">
          <mxGeometry x="160" y="480" width="280" height="370" as="geometry" />
        </mxCell>
        <mxCell id="NAnWz9q5vf9nP5Ye9Hoa-22" style="edgeStyle=orthogonalEdgeStyle;rounded=0;orthogonalLoop=1;jettySize=auto;html=1;strokeWidth=1;fontSize=14;endArrow=none;endFill=0;" edge="1" parent="1" source="NAnWz9q5vf9nP5Ye9Hoa-27">
          <mxGeometry relative="1" as="geometry">
            <Array as="points">
              <mxPoint x="110" y="525" />
              <mxPoint x="280" y="525" />
              <mxPoint x="280" y="530" />
              <mxPoint x="286" y="530" />
            </Array>
            <mxPoint x="286" y="530" as="targetPoint" />
          </mxGeometry>
        </mxCell>
        <mxCell id="NAnWz9q5vf9nP5Ye9Hoa-23" style="edgeStyle=orthogonalEdgeStyle;rounded=0;orthogonalLoop=1;jettySize=auto;html=1;strokeWidth=1;fontSize=14;endArrow=none;endFill=0;entryX=0;entryY=0.5;entryDx=0;entryDy=0;" edge="1" parent="1" source="NAnWz9q5vf9nP5Ye9Hoa-27" target="NAnWz9q5vf9nP5Ye9Hoa-42">
          <mxGeometry relative="1" as="geometry">
            <Array as="points">
              <mxPoint x="170" y="660" />
              <mxPoint x="170" y="600" />
            </Array>
            <mxPoint x="270" y="600" as="targetPoint" />
          </mxGeometry>
        </mxCell>
        <mxCell id="NAnWz9q5vf9nP5Ye9Hoa-24" style="edgeStyle=orthogonalEdgeStyle;rounded=0;orthogonalLoop=1;jettySize=auto;html=1;entryX=0;entryY=0.5;entryDx=0;entryDy=0;strokeWidth=1;fontSize=14;endArrow=none;endFill=0;" edge="1" parent="1" source="NAnWz9q5vf9nP5Ye9Hoa-27" target="NAnWz9q5vf9nP5Ye9Hoa-29">
          <mxGeometry relative="1" as="geometry">
            <Array as="points">
              <mxPoint x="310" y="670" />
            </Array>
          </mxGeometry>
        </mxCell>
        <mxCell id="NAnWz9q5vf9nP5Ye9Hoa-25" style="edgeStyle=orthogonalEdgeStyle;rounded=0;orthogonalLoop=1;jettySize=auto;html=1;entryX=0;entryY=0.5;entryDx=0;entryDy=0;strokeWidth=1;fontSize=14;endArrow=none;endFill=0;" edge="1" parent="1" source="NAnWz9q5vf9nP5Ye9Hoa-27" target="NAnWz9q5vf9nP5Ye9Hoa-44">
          <mxGeometry relative="1" as="geometry">
            <Array as="points">
              <mxPoint x="95" y="730" />
            </Array>
          </mxGeometry>
        </mxCell>
        <mxCell id="NAnWz9q5vf9nP5Ye9Hoa-26" style="edgeStyle=orthogonalEdgeStyle;rounded=0;orthogonalLoop=1;jettySize=auto;html=1;strokeWidth=1;fontSize=14;endArrow=none;endFill=0;entryX=0;entryY=0.5;entryDx=0;entryDy=0;" edge="1" parent="1" source="NAnWz9q5vf9nP5Ye9Hoa-28" target="NAnWz9q5vf9nP5Ye9Hoa-40">
          <mxGeometry relative="1" as="geometry">
            <mxPoint x="300" y="690" as="targetPoint" />
            <mxPoint x="140" y="820" as="sourcePoint" />
            <Array as="points">
              <mxPoint x="290" y="810" />
              <mxPoint x="290" y="810" />
            </Array>
          </mxGeometry>
        </mxCell>
        <mxCell id="NAnWz9q5vf9nP5Ye9Hoa-27" value="Autorité locale" style="shape=umlActor;verticalLabelPosition=bottom;verticalAlign=top;html=1;outlineConnect=0;" vertex="1" parent="1">
          <mxGeometry x="70" y="650" width="50" height="70" as="geometry" />
        </mxCell>
        <mxCell id="NAnWz9q5vf9nP5Ye9Hoa-28" value="Administrateur" style="shape=umlActor;verticalLabelPosition=bottom;verticalAlign=top;html=1;outlineConnect=0;" vertex="1" parent="1">
          <mxGeometry x="80" y="770" width="50" height="80" as="geometry" />
        </mxCell>
        <mxCell id="NAnWz9q5vf9nP5Ye9Hoa-29" value="Planifier des notifications" style="ellipse;whiteSpace=wrap;html=1;" vertex="1" parent="1">
          <mxGeometry x="280" y="640" width="140" height="40" as="geometry" />
        </mxCell>
        <mxCell id="NAnWz9q5vf9nP5Ye9Hoa-33" value="Effectuer des publications" style="ellipse;whiteSpace=wrap;html=1;" vertex="1" parent="1">
          <mxGeometry x="274" y="490" width="140" height="70" as="geometry" />
        </mxCell>
        <mxCell id="NAnWz9q5vf9nP5Ye9Hoa-40" value="Valider l&#39;inscription" style="ellipse;whiteSpace=wrap;html=1;" vertex="1" parent="1">
          <mxGeometry x="280" y="785" width="140" height="50" as="geometry" />
        </mxCell>
        <mxCell id="NAnWz9q5vf9nP5Ye9Hoa-42" value="Créer des sondages&lt;span id=&quot;docs-internal-guid-23791aef-7fff-9aef-de96-399cec2bebd8&quot;&gt;&lt;/span&gt;" style="ellipse;whiteSpace=wrap;html=1;" vertex="1" parent="1">
          <mxGeometry x="274" y="570" width="140" height="60" as="geometry" />
        </mxCell>
        <mxCell id="NAnWz9q5vf9nP5Ye9Hoa-44" value="Consulter des statistiques anonymes" style="ellipse;whiteSpace=wrap;html=1;" vertex="1" parent="1">
          <mxGeometry x="280" y="700" width="140" height="60" as="geometry" />
        </mxCell>
      </root>
    </mxGraphModel>
  </diagram>
</mxfile>
